HIERARCHY
ROOT Hips
{
	OFFSET 0.00000 0.00000 0.00000
	CHANNELS 6 Xposition Yposition Zposition Zrotation Yrotation Xrotation 
	JOINT LHipJoint
	{
		OFFSET 0 0 0
		CHANNELS 3 Zrotation Yrotation Xrotation
		JOINT LeftHip
		{
			OFFSET 1.54859 -1.61379 0.86856
			CHANNELS 3 Zrotation Yrotation Xrotation
			JOINT LeftKnee
			{
				OFFSET 2.25087 -6.18423 0.00000
				CHANNELS 3 Zrotation Yrotation Xrotation
				JOINT LeftAnkle
				{
					OFFSET 2.40328 -6.60297 0.00000
					CHANNELS 3 Zrotation Yrotation Xrotation
					JOINT LeftToe
					{
						OFFSET 0.17435 -0.47901 2.02453
						CHANNELS 3 Zrotation Yrotation Xrotation
						End Site
						{
							OFFSET 0.00000 -0.00000 1.04844
						}
					}
				}
			}
		}
	}
	JOINT RHipJoint
	{
		OFFSET 0 0 0
		CHANNELS 3 Zrotation Yrotation Xrotation
		JOINT RightHip
		{
			OFFSET -1.54669 -1.61379 0.86856
			CHANNELS 3 Zrotation Yrotation Xrotation
			JOINT RightKnee
			{
				OFFSET -2.28132 -6.26789 0.00000
				CHANNELS 3 Zrotation Yrotation Xrotation
				JOINT RightAnkle
				{
					OFFSET -2.51636 -6.91365 0.00000
					CHANNELS 3 Zrotation Yrotation Xrotation
					JOINT RightToe
					{
						OFFSET -0.15124 -0.41552 2.21090
						CHANNELS 3 Zrotation Yrotation Xrotation
						End Site
						{
							OFFSET -0.00000 -0.00000 1.13399
						}
					}
				}
			}
		}
	}
	JOINT lowerback
	{
		OFFSET 0 0 0
		CHANNELS 3 Zrotation Yrotation Xrotation
		JOINT Chest
		{
			OFFSET -0.04287 2.26161 -0.25690
			CHANNELS 3 Zrotation Yrotation Xrotation
			JOINT Chest2
			{
				OFFSET 0.02248 2.28395 -0.10140
				CHANNELS 3 Zrotation Yrotation Xrotation
				JOINT lowerneck
				{
					OFFSET 0 0 0
					CHANNELS 3 Zrotation Yrotation Xrotation
					JOINT Neck
					{
						OFFSET -0.11644 1.38496 0.11345
						CHANNELS 3 Zrotation Yrotation Xrotation
						JOINT Head
						{
							OFFSET 0.29383 1.36600 0.06642
							CHANNELS 3 Zrotation Yrotation Xrotation
							End Site
							{
								OFFSET 0.11075 1.41395 -0.00294
							}
						}
					}
				}
				JOINT LeftCollar
				{
					OFFSET 0 0 0
					CHANNELS 3 Zrotation Yrotation Xrotation
					JOINT LeftShoulder
					{
						OFFSET 3.51628 0.59542 -0.30346
CHANNELS 3 Zrotation Xrotation Yrotation
						JOINT LeftElbow
						{
OFFSET 0 -4.764050 0.000000
CHANNELS 3 Zrotation Xrotation Yrotation
							JOINT LeftWrist
							{
OFFSET 0 -3.137590 -0.000000
CHANNELS 3 Zrotation Xrotation Yrotation
								JOINT lhand
								{
									OFFSET 0 0 0
CHANNELS 3 Zrotation Xrotation Yrotation
									JOINT LFingers
									{
OFFSET 0 -0.732260 -0.000000
CHANNELS 3 Zrotation Xrotation Yrotation
										End Site
										{
OFFSET 0 -0.590370 -0.000000
										}
									}
								}
								JOINT LThumb
								{
OFFSET 0 0.000000 0.000000
CHANNELS 3 Zrotation Xrotation Yrotation
									End Site
									{
OFFSET 0 -0.599380 0.599380
									}
								}
							}
						}
					}
				}
				JOINT RightCollar
				{
					OFFSET 0 0 0
					CHANNELS 3 Zrotation Yrotation Xrotation
					JOINT RightShoulder
					{
						OFFSET -3.30990 0.84213 -0.36430
CHANNELS 3 Zrotation Xrotation Yrotation
						JOINT RightElbow
						{
OFFSET 0 -5.101610 -0.000000
CHANNELS 3 Zrotation Xrotation Yrotation
							JOINT RightWrist
							{
OFFSET 0 -3.232670 -0.000000
CHANNELS 3 Zrotation Xrotation Yrotation
								JOINT rhand
								{
									OFFSET 0 0 0
CHANNELS 3 Zrotation Xrotation Yrotation
									JOINT RFingers
									{
OFFSET 0 -0.702000 -0.000000
CHANNELS 3 Zrotation Xrotation Yrotation
										End Site
										{
OFFSET 0 -0.565970 -0.000000
										}
									}
								}
								JOINT RThumb
								{
OFFSET 0 0.000000 0.000000
CHANNELS 3 Zrotation Xrotation Yrotation
									End Site
									{
OFFSET 0 -0.574610 0.574610
									}
								}
							}
						}
					}
				}
			}
		}
	}
}
MOTION
Frames: 6
Frame Time: 0.008333333333333333
-37.099400 15.842700 -16.025400 8.666600 68.193200 10.180700 0.000000 0.000000 0.000000 -21.495300 -6.686200 -9.457200 3.485100 11.441700 33.784600 0.400000 -13.156900 -13.645200 1.695200 -8.200000 -23.323200 0.000000 0.000000 0.000000 18.095800 8.458600 -8.005100 -3.966700 -12.115900 36.143400 -0.708700 -17.261800 -29.942600 -0.509900 4.577400 -12.707000 -4.186500 1.249800 0.398700 -0.021500 1.938300 6.610500 2.424700 0.776700 6.528900 5.131000 14.768900 -31.805700 -10.695400 21.814300 21.362000 -0.201300 8.390100 14.337500 0.000000 0.000000 0.000000 -1.876700 4.007500 -56.413900 128.438100 -53.606300 92.573500 14.934800 -6.342100 -28.920000 0.000000 0.000000 0.000000 -7.125000 0.000000 0.000000 -17.977300 58.827600 6.202900 0.000000 0.000000 0.000000 0.799700 4.460800 32.865900 -94.543800 -59.921800 -63.934100 -19.784600 -46.177600 -21.584300 0.000000 0.000000 0.000000 7.125000 0.000000 -0.000000 5.648600 7.268300 4.913100
-37.099144 15.840799 -16.025363 8.672559 68.177918 10.194337 0.000000 0.000000 0.000000 -21.487257 -6.601598 -9.525240 3.494679 11.455703 33.832824 0.426726 -12.818419 -13.764901 2.281199 -9.283118 -26.798938 0.000000 0.000000 0.000000 18.085234 8.485070 -8.037603 -3.979935 -12.133559 36.206285 -0.687239 -17.337116 -29.880081 -0.543829 4.720719 -13.114398 -4.247484 1.225194 0.505348 0.032574 1.893769 6.522827 2.508571 0.753557 6.373918 5.096852 14.788789 -31.702671 -10.709074 21.881572 21.410443 -0.188942 8.416899 14.343642 0.000000 0.000000 0.000000 -2.001921 4.163725 -56.322388 128.459378 -53.598257 92.590611 14.950156 -6.355810 -28.854592 0.000000 0.000000 0.000000 -7.125000 0.000000 0.000000 -17.916719 58.768773 6.155810 0.000000 0.000000 0.000000 0.668410 4.616074 33.217251 -94.588989 -59.920228 -63.973184 -19.839039 -45.782705 -21.500320 0.000000 0.000000 0.000000 7.125000 0.000000 0.000000 5.607652 7.347381 4.868569
-37.098888 15.838898 -16.025327 8.678519 68.162635 10.207974 0.000000 0.000000 0.000000 -21.479213 -6.516996 -9.593280 3.504258 11.469706 33.881048 0.453452 -12.479938 -13.884601 2.867197 -10.366235 -30.274677 0.000000 0.000000 0.000000 18.074668 8.511540 -8.070105 -3.993170 -12.151218 36.269170 -0.665777 -17.412431 -29.817562 -0.577757 4.864038 -13.521797 -4.308467 1.200589 0.611996 0.086647 1.849238 6.435154 2.592442 0.730414 6.218936 5.062704 14.808678 -31.599643 -10.722748 21.948844 21.458886 -0.176585 8.443698 14.349784 0.000000 0.000000 0.000000 -2.127142 4.319950 -56.230876 128.480657 -53.590213 92.607721 14.965511 -6.369521 -28.789185 0.000000 0.000000 0.000000 -7.125000 0.000000 0.000000 -17.856137 58.709947 6.108719 0.000000 0.000000 0.000000 0.537119 4.771349 33.568601 -94.634179 -59.918656 -64.012267 -19.893478 -45.387811 -21.416339 0.000000 0.000000 0.000000 7.125000 0.000000 0.000000 5.566704 7.426463 4.824038
-37.098623 15.837074 -16.025290 8.689852 68.147130 10.227073 0.000000 0.000000 0.000000 -21.474152 -6.436044 -9.659799 3.513701 11.483495 33.928536 0.466777 -12.336033 -13.955161 3.154511 -10.901974 -31.990110 0.000000 0.000000 0.000000 18.058979 8.526091 -8.106927 -4.005805 -12.168063 36.329198 -0.661745 -17.421255 -29.800077 -0.594470 4.934736 -13.722748 -4.376113 1.158990 0.608745 0.152902 1.792390 6.440794 2.696879 0.695622 6.228756 4.973345 14.834803 -31.576787 -10.766796 22.043790 21.441467 -0.158718 8.474342 14.343039 0.000000 0.000000 0.000000 -2.293273 4.308362 -56.103470 128.476344 -53.591843 92.604236 14.965955 -6.390667 -28.731301 0.000000 0.000000 0.000000 -7.125000 0.000000 0.000000 -17.816393 58.654945 6.070730 0.000000 0.000000 0.000000 0.365616 4.757067 33.954868 -94.635272 -59.918604 -64.013191 -19.949293 -45.000246 -21.331952 0.000000 0.000000 0.000000 7.125000 0.000000 0.000000 5.524835 7.505786 4.778761
-37.098330 15.835465 -16.025254 8.716103 68.131007 10.261330 0.000000 0.000000 0.000000 -21.477369 -6.365226 -9.722099 3.522768 11.496694 33.973981 0.442903 -12.732243 -13.889315 2.612714 -9.918266 -28.819180 0.000000 0.000000 0.000000 18.029073 8.507554 -8.155735 -4.016773 -12.182651 36.381297 -0.706094 -17.245506 -29.907603 -0.563393 4.803847 -13.350631 -4.462250 1.070220 0.300427 0.252969 1.701353 6.705458 2.858405 0.628496 6.696041 4.730727 14.878238 -31.776483 -10.895162 22.215553 21.241223 -0.125557 8.515655 14.300519 0.000000 0.000000 0.000000 -2.572965 3.830949 -55.876426 128.400992 -53.620324 92.543582 14.925007 -6.432457 -28.694301 0.000000 0.000000 0.000000 -7.125000 0.000000 0.000000 -17.834491 58.610560 6.058007 0.000000 0.000000 0.000000 0.082488 4.272123 34.438057 -94.513963 -59.922772 -63.908188 -20.008924 -44.633028 -21.246436 0.000000 0.000000 0.000000 7.125000 0.000000 0.000000 5.480414 7.585781 4.731414
-37.098038 15.833857 -16.025217 8.742354 68.114883 10.295588 0.000000 0.000000 0.000000 -21.480587 -6.294407 -9.784399 3.531836 11.509892 34.019426 0.419029 -13.128454 -13.823469 2.070918 -8.934557 -25.648251 0.000000 0.000000 0.000000 17.999166 8.489018 -8.204544 -4.027741 -12.197239 36.433397 -0.750442 -17.069758 -30.015129 -0.532316 4.672959 -12.978514 -4.548388 0.981450 -0.007892 0.353036 1.610316 6.970123 3.019931 0.561371 7.163327 4.488108 14.921672 -31.976179 -11.023527 22.387316 21.040979 -0.092396 8.556969 14.257998 0.000000 0.000000 0.000000 -2.852656 3.353537 -55.649383 128.325640 -53.648805 92.482927 14.884059 -6.474246 -28.657302 0.000000 0.000000 0.000000 -7.125000 0.000000 0.000000 -17.852588 58.566175 6.045284 0.000000 0.000000 0.000000 -0.200639 3.787179 34.921247 -94.392654 -59.926940 -63.803185 -20.068554 -44.265810 -21.160920 0.000000 0.000000 0.000000 7.125000 0.000000 0.000000 5.435992 7.665777 4.684068
